<?xml version="1.0" encoding="iso-8859-1"?>
<!-- Generator: Adobe Illustrator 16.0.0, SVG Export Plug-In . SVG Version: 6.00 Build 0)  -->
<!DOCTYPE svg PUBLIC "-//W3C//DTD SVG 1.1//EN" "http://www.w3.org/Graphics/SVG/1.1/DTD/svg11.dtd">
<svg version="1.1" id="Capa_1" xmlns="http://www.w3.org/2000/svg" xmlns:xlink="http://www.w3.org/1999/xlink" x="0px" y="0px"
	 width="577.574px" height="577.574px" viewBox="0 0 577.574 577.574" style="enable-background:new 0 0 577.574 577.574;"
	 xml:space="preserve">
<g>
	<g id="Layer_1_72_">
		<path d="M577.574,269.663c0-20.4-16.574-36.975-36.975-36.975l0,0v-45.9c0-20.4-16.574-36.975-36.975-36.975h-63.75
			c-20.4,0-36.975,16.575-36.975,36.975v76.5H174.675v-76.5c0-20.4-16.575-36.975-36.975-36.975H73.95
			c-20.4,0-36.975,16.575-36.975,36.975v44.625l0,0C16.575,231.413,0,247.988,0,268.388v38.249c0,20.4,16.575,36.977,36.975,36.977
			l0,0v47.174c0,20.4,16.575,36.975,36.975,36.975h63.75c20.4,0,36.975-16.574,36.975-36.975v-76.5h226.95v76.5
			c0,20.4,16.574,36.975,36.975,36.975h63.75c20.4,0,36.975-16.574,36.975-36.975v-44.625l0,0c20.4,0,36.977-16.574,36.977-36.975
			v-39.525H577.574z"/>
	</g>
</g>
<g>
</g>
<g>
</g>
<g>
</g>
<g>
</g>
<g>
</g>
<g>
</g>
<g>
</g>
<g>
</g>
<g>
</g>
<g>
</g>
<g>
</g>
<g>
</g>
<g>
</g>
<g>
</g>
<g>
</g>
</svg>
